<?xml version="1.0" encoding="iso-8859-1"?>
<!-- Generator: Adobe Illustrator 19.0.0, SVG Export Plug-In . SVG Version: 6.00 Build 0)  -->
<svg version="1.1" id="Layer_1" xmlns="http://www.w3.org/2000/svg" xmlns:xlink="http://www.w3.org/1999/xlink" x="0px" y="0px"
	 viewBox="0 0 512.002 512.002" style="enable-background:new 0 0 512.002 512.002;" xml:space="preserve">
<path style="fill:#C3DFF7;" d="M429.437,199.809c-4.062-2.345-8-4.135-11.915-5.739c0.984-5.617,1.571-11.634,1.59-18.122
	c0.17-59.927-41.938-132.89-94.09-163c-26.238-15.148-50.003-16.552-67.167-6.577l-33.679,19.572
	c-4.453-4.102-9.158-7.674-14.053-10.5c-13.782-7.957-26.266-8.698-35.279-3.46l-36.301,21.095
	c-16.764-6.515-31.774-5.953-43.249,0.714l-68.34,39.715c0.046-0.027,0.095-0.048,0.141-0.074
	C12.861,81.625,4.022,99.141,3.951,124.073C3.808,174.126,39.006,235.092,82.54,260.226l278.044,160.529
	c22.026,12.716,41.962,13.824,56.319,5.358c-0.069,0.041-0.128,0.098-0.198,0.138l68.34-39.715
	c14.158-8.227,22.937-25.722,23.007-50.588C508.194,285.922,472.997,224.957,429.437,199.809z"/>
<path style="fill:#D2E7F8;" d="M256.682,52.664c52.152,30.109,94.26,103.073,94.09,163c-0.019,6.488-0.606,12.504-1.59,18.122
	c3.915,1.604,7.853,3.394,11.915,5.739c43.558,25.149,78.757,86.113,78.615,136.137c-0.142,50.052-35.57,70.241-79.128,45.093
	L82.541,260.226c-43.534-25.134-78.732-86.099-78.59-136.152c0.142-50.024,35.57-70.213,79.104-45.079
	c3.071,1.773,6.066,3.759,9.037,5.873c0.001-0.455-0.047-0.911-0.046-1.366c0.09-31.472,22.349-44.157,49.738-28.345
	c8.94,5.161,17.277,12.74,24.52,21.681C178.388,39.583,214.312,28.202,256.682,52.664z"/>
<path style="fill:#C3DFF7;" d="M362.764,358.926c-2.683-1.549-5.284-2.731-7.869-3.79c0.65-3.71,1.038-7.684,1.049-11.969
	c0.113-39.58-27.7-87.771-62.145-107.658c-17.329-10.005-33.026-10.932-44.362-4.344l-22.244,12.926
	c-2.941-2.71-6.049-5.068-9.282-6.935c-9.103-5.256-17.348-5.745-23.301-2.285l-23.975,13.933
	c-11.072-4.303-20.986-3.932-28.565,0.473l-45.136,26.232c0.03-0.018,0.063-0.031,0.093-0.049
	c-9.402,5.411-15.24,16.98-15.287,33.446c-0.094,33.058,23.153,73.325,51.907,89.924l183.641,106.026
	c14.547,8.399,27.716,9.131,37.198,3.539c-0.046,0.027-0.084,0.065-0.13,0.091l45.137-26.231
	c9.351-5.434,15.149-16.989,15.196-33.413C414.782,415.802,391.534,375.537,362.764,358.926z"/>
<path style="fill:#D2E7F8;" d="M248.663,261.74c34.445,19.887,62.257,68.078,62.144,107.658c-0.013,4.285-0.401,8.259-1.049,11.969
	c2.586,1.06,5.187,2.241,7.87,3.79c28.77,16.61,52.017,56.876,51.923,89.916c-0.094,33.058-23.493,46.393-52.262,29.783
	L133.646,398.83c-28.753-16.601-52.001-56.866-51.907-89.924c0.094-33.039,23.492-46.374,52.246-29.773
	c2.028,1.171,4.006,2.482,5.968,3.879c0.001-0.3-0.031-0.602-0.03-0.902c0.058-20.786,14.761-29.164,32.85-18.72
	c5.905,3.409,11.411,8.414,16.194,14.32C196.953,253.1,220.679,245.584,248.663,261.74z"/>
<g>
</g>
<g>
</g>
<g>
</g>
<g>
</g>
<g>
</g>
<g>
</g>
<g>
</g>
<g>
</g>
<g>
</g>
<g>
</g>
<g>
</g>
<g>
</g>
<g>
</g>
<g>
</g>
<g>
</g>
</svg>
